<svg xmlns="http://www.w3.org/2000/svg" viewBox="0 0 1000 1000" preserveAspectRatio="none" style="position:absolute; top:0; left:0; width:100%; height:100%; ">
      <defs>
      <linearGradient id="rainbowX" x1="0%" y1="0%" x2="100%" y2="0%">
        <stop offset="10%" style="stop-color:#cc00ff;" />
        <stop offset="20%" style="stop-color:#0066ff;" />
        <stop offset="30%" style="stop-color:#00ff00;" />
        <stop offset="40%" style="stop-color:#ffcc00;" />
        <stop offset="50%" style="stop-color:#ff0066;" />
        <stop offset="60%" style="stop-color:#ffcc00;" />
        <stop offset="70%" style="stop-color:#00ff00;" />
        <stop offset="80%" style="stop-color:#0066ff;" />
        <stop offset="90%" style="stop-color:#cc00ff;" />
      </linearGradient>
      <linearGradient id="rainbowY" x1="0%" y1="0%" x2="0%" y2="100%">
        <stop offset="10%" style="stop-color:#cc00ff;" />
        <stop offset="20%" style="stop-color:#0066ff;" />
        <stop offset="30%" style="stop-color:#00ff00;" />
        <stop offset="40%" style="stop-color:#ffcc00;" />
        <stop offset="50%" style="stop-color:#ff0066;" />
        <stop offset="60%" style="stop-color:#ffcc00;" />
        <stop offset="70%" style="stop-color:#00ff00;" />
        <stop offset="80%" style="stop-color:#0066ff;" />
        <stop offset="90%" style="stop-color:#cc00ff;" />
      </linearGradient>
    </defs>
  <line x1="0" y1="10%" x2="100%" y2="10%" stroke="#cc00ff" stroke-width="1" />
  <line x1="0" y1="20%" x2="100%" y2="20%" stroke="#0066ff" stroke-width="1" />
  <line x1="0" y1="30%" x2="100%" y2="30%" stroke="#00ff00" stroke-width="1" />
  <line x1="0" y1="40%" x2="100%" y2="40%" stroke="#ffcc00" stroke-width="1" />
  <rect x="0" y="50%" width="100%" height="1px" fill="url(#rainbowX)" />
  <line x1="0" y1="60%" x2="100%" y2="60%" stroke="#ffcc00" stroke-width="1" />
  <line x1="0" y1="70%" x2="100%" y2="70%" stroke="#00ff00" stroke-width="1" />
  <line x1="0" y1="80%" x2="100%" y2="80%" stroke="#0066ff" stroke-width="1" />
  <line x1="0" y1="90%" x2="100%" y2="90%" stroke="#cc00ff" stroke-width="1" />

  <line x1="10%" y1="0" x2="10%" y2="100%" stroke="#cc00ff" stroke-width="1" />
  <line x1="20%" y1="0" x2="20%" y2="100%" stroke="#0066ff" stroke-width="1" />
  <line x1="30%" y1="0" x2="30%" y2="100%" stroke="#00ff00" stroke-width="1" />
  <line x1="40%" y1="0" x2="40%" y2="100%" stroke="#ffcc00" stroke-width="1" />
  <rect x="50%" y="0" width="1px" height="100%" fill="url(#rainbowY)" />
  <line x1="60%" y1="0" x2="60%" y2="100%" stroke="#ffcc00" stroke-width="1" />
  <line x1="70%" y1="0" x2="70%" y2="100%" stroke="#00ff00" stroke-width="1" />
  <line x1="80%" y1="0" x2="80%" y2="100%" stroke="#0066ff" stroke-width="1" />
  <line x1="90%" y1="0" x2="90%" y2="100%" stroke="#cc00ff" stroke-width="1" />
</svg>